<?xml version="1.0" encoding="iso-8859-1"?>
<!-- Uploaded to: SVG Repo, www.svgrepo.com, Generator: SVG Repo Mixer Tools -->
<!DOCTYPE svg PUBLIC "-//W3C//DTD SVG 1.1//EN" "http://www.w3.org/Graphics/SVG/1.1/DTD/svg11.dtd">
<svg fill="#000000" version="1.1" id="Capa_1" xmlns="http://www.w3.org/2000/svg" xmlns:xlink="http://www.w3.org/1999/xlink" 
	 width="800px" height="800px" viewBox="0 0 578.703 578.703"
	 xml:space="preserve">
<g>
	<g>
		<circle cx="370.533" cy="144.853" r="35.907"/>
		<circle cx="371.681" cy="31.709" r="31.709"/>
		<path d="M161.469,395.936c0-1.344-0.311-1.124-1.521-0.55c-14.176,6.723-63.581,33.817-77.212,41.319
			c-11.073,6.44-8.482,23.754,11.403,23.754h27.96c1.344,0,3.318,0.674,3.706,1.96c0,0-0.98,100.291-0.98,100.727
			c0,8.08,6.354,14.626,14.195,14.626s14.109-6.551,14.109-14.626c0-0.512-0.162-43.787-0.162-43.787
			c0-1.343,1.085-3.083,2.429-3.103h45.857c1.339-0.02,1.812,0.865,1.109,2.003c-4.49,7.253-16.185,28.014-21.559,36.3
			c-4.116,5.432-3.696,13.191,1.248,18.14c5.403,5.403,14.416,5.613,19.603-0.019c0.311-0.34,15.84-24.107,24.122-41.2
			c0.583-1.21,1.047-1.104,1.047,0.239c0.009,11.398,0.11,24.154,0.459,30.867c0,0.033-0.005,0.067-0.005,0.105
			c0,8.161,8.133,14.778,16.127,14.778s15.85-6.827,15.85-14.993c0-0.101,0-87.631,0-87.631c0.048-1.339,1.157-2.64,2.41-3.117
			c10.796-4.146,11.006-18.638,10.638-24.428c-0.086-1.339-1.162-1.855-2.31-1.157l-13.531,8.2
			c-1.147,0.693-3.165,1.257-4.509,1.257c-13.971,0-83.585,0-87.401,0c-2.769,0-3.242-3.7-3.232-6.277
			c0.005-1.344,0.144-3.51,0.144-4.854v-48.534H161.469z"/>
		<path d="M329.209,74.965l-44.92,26.35l-4.327-10.328c-0.455-1.081-1.042-2.061-1.64-3.026
			c-5.479-8.812-16.634-12.651-26.517-8.511c-10.959,4.59-16.127,17.198-11.537,28.157l31.876,76.103
			c1.348,3.213,3.452,6.053,6.134,8.267l44.614,36.892c0.066,0.344,0.114,327.544,0.114,327.544
			c0.053,10.931,9.83,22.29,21.884,22.29c11.164,0,20.325-9.576,21.688-19.675c0.182-1.329,0.158-178.732,0.158-178.732
			c0-1.344,1.085-2.429,2.429-2.429h8.501c1.344,0,2.429,1.085,2.429,2.429l-0.019,176.48c0.091,10.931,9.348,21.927,21.4,21.927
			c12.054,0,22.276-11.092,22.367-22.021l-0.015-332.489l38.958-32.211c2.687-2.219,4.786-5.059,6.134-8.267l31.877-76.103
			c4.59-10.958-0.574-23.567-11.537-28.157c-8.645-3.629-18.25-1.114-24.203,5.46c-1.597,1.76-2.983,3.753-3.954,6.072l-3.987,9.52
			l-45.465-25.661c-2.151-1.214-4.576-1.85-7.043-1.85c0,0-0.005,0-0.01,0h-68.133C333.919,72.996,331.413,73.674,329.209,74.965z
			 M400.832,101.683l45.126,25.47l-14.679,35.046l-31.872,26.35h-57.748l-31.866-26.354l-14.315-34.181l44.891-26.335h60.464
			V101.683z"/>
	</g>
</g>
</svg>